<svg id="visual" viewBox="0 0 960 540" width="960" height="540" xmlns="http://www.w3.org/2000/svg" xmlns:xlink="http://www.w3.org/1999/xlink" version="1.1"><rect x="0" y="0" width="960" height="540" fill="#001220"></rect><path d="M0 258L32 255.8C64 253.7 128 249.3 192 262C256 274.7 320 304.3 384 283.2C448 262 512 190 576 180.8C640 171.7 704 225.3 768 219C832 212.7 896 146.3 928 113.2L960 80L960 541L928 541C896 541 832 541 768 541C704 541 640 541 576 541C512 541 448 541 384 541C320 541 256 541 192 541C128 541 64 541 32 541L0 541Z" fill="#c62368"></path><path d="M0 252L32 264.2C64 276.3 128 300.7 192 310.2C256 319.7 320 314.3 384 314.3C448 314.3 512 319.7 576 302.3C640 285 704 245 768 246.8C832 248.7 896 292.3 928 314.2L960 336L960 541L928 541C896 541 832 541 768 541C704 541 640 541 576 541C512 541 448 541 384 541C320 541 256 541 192 541C128 541 64 541 32 541L0 541Z" fill="#dc2f59"></path><path d="M0 266L32 282.3C64 298.7 128 331.3 192 324.8C256 318.3 320 272.7 384 281.7C448 290.7 512 354.3 576 376.2C640 398 704 378 768 377.7C832 377.3 896 396.7 928 406.3L960 416L960 541L928 541C896 541 832 541 768 541C704 541 640 541 576 541C512 541 448 541 384 541C320 541 256 541 192 541C128 541 64 541 32 541L0 541Z" fill="#ec4347"></path><path d="M0 401L32 409.3C64 417.7 128 434.3 192 438C256 441.7 320 432.3 384 413.3C448 394.3 512 365.7 576 361.5C640 357.3 704 377.7 768 385.7C832 393.7 896 389.3 928 387.2L960 385L960 541L928 541C896 541 832 541 768 541C704 541 640 541 576 541C512 541 448 541 384 541C320 541 256 541 192 541C128 541 64 541 32 541L0 541Z" fill="#f55c31"></path><path d="M0 513L32 496.3C64 479.7 128 446.3 192 443C256 439.7 320 466.3 384 468.8C448 471.3 512 449.7 576 434.7C640 419.7 704 411.3 768 411.5C832 411.7 896 420.3 928 424.7L960 429L960 541L928 541C896 541 832 541 768 541C704 541 640 541 576 541C512 541 448 541 384 541C320 541 256 541 192 541C128 541 64 541 32 541L0 541Z" fill="#f7770f"></path></svg>
